<?xml version="1.0" standalone="no"?>
<!DOCTYPE svg PUBLIC "-//W3C//DTD SVG 20010904//EN"
 "http://www.w3.org/TR/2001/REC-SVG-20010904/DTD/svg10.dtd">
<svg version="1.0" xmlns="http://www.w3.org/2000/svg"
 width="32.000000pt" height="32.000000pt" viewBox="0 0 32.000000 32.000000"
 preserveAspectRatio="xMidYMid meet">

<g transform="translate(0.000000,32.000000) scale(0.100000,-0.100000)"
fill="#000000" stroke="none">
<path d="M147 314 c-4 -4 -7 -15 -7 -25 0 -23 -34 -33 -59 -17 -30 18 -51 -3
-33 -33 17 -27 7 -57 -21 -61 -12 -2 -22 -10 -22 -18 0 -8 10 -16 22 -18 28
-4 38 -34 21 -61 -18 -30 3 -51 33 -33 27 17 57 7 61 -21 4 -29 32 -29 36 0 4
28 34 38 61 21 30 -18 51 3 33 33 -17 27 -7 57 21 61 29 4 29 32 0 36 -28 4
-38 34 -21 61 18 30 -3 51 -33 33 -26 -17 -57 -7 -61 20 -3 22 -19 33 -31 22z
m65 -101 c23 -20 24 -80 1 -105 -22 -25 -84 -24 -107 1 -23 25 -23 76 -1 101
22 25 81 27 107 3z"/>
</g>
</svg>
